PathFileType	4	(X/Y/Z)	D:\MotionData\NordSprintingStudy\Test 2\Edited\JustTheBoards000001.trc
DataRate	CameraRate	NumFrames	NumMarkers	Units	OrigDataRate	OrigDataStartFrame	OrigNumFrames
200.00	200.00	       73	5	mm	200.00	547	       624
Frame#	Time	M1			M2			M3			M4			M5			
		X1	Y1	Z1	X2	Y2	Z2	X3	Y3	Z3	X4	Y4	Z4	X5	Y5	Z5	

547	2.730	917.42883	1916.72095	47.70407	901.17688	2236.90649	58.82401	1100.94312	2247.60376	57.72136	1500.70398	2267.92456	58.67554	1516.33838	1946.60083	47.81361	
548	2.735	917.49304	1916.74792	47.60165	901.25336	2236.87964	58.76454	1100.95142	2247.61621	57.74800	1500.40894	2268.08740	58.19005	1516.39917	1946.62585	47.69835	
549	2.740	917.47504	1916.74219	47.64193	901.23499	2236.96997	58.77592	1100.86536	2247.59888	57.84284	1500.59399	2268.83765	57.97439	1516.36670	1946.64807	47.73849	
550	2.745	917.45825	1916.73657	47.63887	901.18121	2236.90283	58.83846	1100.90210	2247.59814	57.77528	1500.58911	2269.22827	57.86531	1516.33167	1946.62671	47.78316	
551	2.750	917.25140	1916.44202	47.48227	901.14343	2236.90259	58.80132	1100.93335	2247.62744	57.73760	1500.48193	2269.70532	57.69553	1516.33936	1946.62329	47.78969	
552	2.755	917.18616	1916.82031	47.37366	901.10333	2236.86084	58.88087	1100.86462	2247.58447	57.80014	1500.60608	2267.93457	58.69149	1516.29492	1946.59998	47.87260	
553	2.760	917.19666	1916.91443	47.29640	901.16785	2236.92798	58.81606	1100.79480	2247.60107	57.89447	1500.59912	2267.91504	58.75663	1516.30273	1946.61633	47.81175	
554	2.765	917.15161	1916.85046	47.35601	901.14252	2236.90039	58.85402	1100.80762	2247.59131	57.86539	1500.59644	2267.91870	58.77408	1516.27051	1946.59998	47.90545	
555	2.770	917.05420	1916.83899	47.46576	901.07977	2236.88306	58.90787	1100.81848	2247.57568	57.87870	1500.56226	2267.88623	58.82918	1516.20874	1946.57117	47.96367	
556	2.775	917.09698	1916.83984	47.40686	901.08899	2236.86768	58.91254	1100.74194	2247.58423	57.92495	1500.45703	2267.81836	58.99859	1516.22644	1946.57068	47.94378	
557	2.780	917.05109	1916.82092	47.48534	901.05298	2236.86670	58.94598	1100.66760	2247.54224	58.03604	1500.47510	2267.83179	58.93460	1516.19226	1946.54541	48.01317	
558	2.785	916.96173	1916.78955	47.57953	901.03778	2236.83179	58.99000	1100.72827	2247.56738	57.96238	1500.44055	2267.81055	58.99715	1516.14453	1946.53113	48.08213	
559	2.790	917.02142	1916.81116	47.54869	901.02344	2236.86987	58.98214	1100.66418	2247.54688	58.01510	1500.42798	2267.75757	59.02562	1516.15540	1946.52637	48.06143	
560	2.795	916.97150	1916.79858	47.60283	900.99255	2236.87500	59.03119	1100.67554	2247.56860	58.04318	1500.40918	2267.74756	59.09969	1516.13184	1946.53503	48.08787	
561	2.800	917.01331	1916.78674	47.56463	901.03192	2236.82959	59.01578	1100.68237	2247.57202	58.07190	1500.38135	2267.71655	59.10049	1516.15747	1946.50964	48.08116	
562	2.805	916.97229	1916.79382	47.63304	900.98230	2236.80688	59.08291	1100.67041	2247.50342	58.06207	1500.40295	2267.72705	59.10736	1516.14026	1946.51770	48.10362	
563	2.810	917.02136	1916.82239	47.58709	900.95032	2236.81885	59.12355	1100.67407	2247.54663	58.09301	1500.44360	2267.76270	59.09228	1516.11816	1946.48547	48.15670	
564	2.815	917.00977	1916.81909	47.58068	901.04974	2236.84692	59.04128	1100.66528	2247.52710	58.11565	1500.42664	2267.71753	59.10555	1516.18323	1946.52673	48.08252	
565	2.820	917.05969	1916.80566	47.52705	901.03882	2236.84155	59.02766	1100.75500	2247.54590	57.96938	1500.48462	2267.78320	59.03651	1516.19568	1946.53784	48.07804	
566	2.825	917.08160	1916.83521	47.51488	901.03125	2236.85718	59.07114	1100.75403	2247.55640	57.99205	1500.53284	2267.80127	58.97312	1516.15515	1946.51917	48.10362	
567	2.830	917.09937	1916.84521	47.46258	901.11664	2236.86279	58.90243	1100.77612	2247.56201	57.96744	1500.41162	2267.77124	59.08244	1515.99670	1946.74207	47.46455	
568	2.835	917.12714	1916.81970	47.45159	901.10504	2236.85767	58.92714	1100.81714	2247.57397	57.89323	1500.56409	2267.81616	58.91172	1516.02661	1946.82385	47.49247	
569	2.840	917.18372	1916.87830	47.36602	901.06348	2236.87183	58.99022	1100.80298	2247.58496	57.91512	1500.56311	2267.86157	58.92376	1516.00208	1946.84558	47.48609	
570	2.845	917.17139	1916.86218	47.34742	901.12927	2236.87695	58.87123	1100.81116	2247.59277	57.87828	1500.71094	2267.88159	58.71746	1516.06042	1946.87585	47.43596	
571	2.850	917.18237	1916.85974	47.33707	901.27795	2236.79712	58.77591	1100.87207	2247.58984	57.77396	1500.64233	2267.86426	58.80609	1516.10547	1946.87354	47.36749	
572	2.855	917.23334	1916.87622	47.27684	901.08466	2236.90601	58.88037	1100.85095	2247.64819	57.78254	1500.67126	2267.93018	58.76865	1516.09888	1946.86060	47.36268	
573	2.860	917.23279	1916.89014	47.26639	901.16986	2236.88428	58.79113	1100.81848	2247.70508	57.78632	1500.71301	2267.92041	58.68425	1516.10449	1946.87866	47.32730	
574	2.865	917.25726	1916.89404	47.23571	901.14020	2236.90283	58.82471	1100.83679	2248.05688	57.50473	1500.70422	2267.95776	58.65895	1516.15784	1946.89514	47.33103	
575	2.870	917.16815	1916.86487	47.32421	901.31012	2236.86133	58.74337	1100.75195	2248.50244	57.25945	1500.66565	2267.91968	58.68510	1516.08411	1946.87915	47.37406	
576	2.875	917.23889	1916.88757	47.23242	901.18927	2236.92163	58.78649	1100.57800	2249.16064	56.98728	1500.57800	2267.91211	58.77818	1516.11890	1946.88416	47.32362	
577	2.880	917.19788	1916.87329	47.30770	901.16113	2236.89404	58.80394	1101.12402	2247.63794	58.31625	1500.69714	2267.92505	58.66407	1516.13684	1946.88770	47.33689	
578	2.885	917.18713	1916.84802	47.33375	901.15485	2236.89673	58.82839	1101.18799	2247.63037	58.20499	1500.65503	2267.94629	58.72443	1516.11047	1946.88013	47.35781	
579	2.890	917.23059	1916.87695	47.29000	901.14471	2236.91235	58.81507	1101.15918	2247.62549	58.24252	1500.55493	2267.90210	58.81678	1516.11230	1946.86853	47.34797	
580	2.895	917.17615	1916.85718	47.35205	901.05890	2237.42627	58.72713	1101.18518	2247.62427	58.22975	1500.52759	2267.88574	58.82289	1516.07153	1946.87769	47.40789	
581	2.900	917.09564	1916.85229	47.44283	900.85791	2238.64307	58.37740	1101.14282	2247.61938	58.30504	1500.61584	2267.87329	58.76927	1515.96875	1946.84729	47.49479	
582	2.905	917.13086	1916.83533	47.40751	901.48065	2236.58838	59.24973	1101.08398	2247.57080	58.37593	1500.49390	2267.81519	58.97321	1516.04602	1946.84106	47.46335	
583	2.910	917.06781	1916.82166	47.47601	901.36639	2236.85254	59.33167	1101.00562	2247.55371	58.53647	1500.56006	2267.80688	58.87693	1516.00879	1946.84509	47.49481	
584	2.915	917.02557	1916.81628	47.52901	901.33234	2236.76904	59.37749	1101.05273	2247.52417	58.42743	1500.46057	2267.83350	58.95489	1515.97119	1946.82056	47.53643	
585	2.920	917.06824	1916.81274	47.48833	901.32568	2236.77075	59.41072	1101.03418	2247.55615	58.51487	1500.42114	2267.75610	59.05307	1515.91870	1946.82129	47.55978	
586	2.925	917.00690	1916.79565	47.53130	901.42413	2236.58618	59.46921	1100.96143	2247.47534	58.60687	1500.47803	2267.77856	59.01062	1515.90417	1946.82141	47.56804	
587	2.930	916.98022	1916.81055	47.58699	901.35004	2236.79736	59.42612	1101.02600	2247.54102	58.53786	1500.44556	2267.78613	59.07826	1515.85437	1946.80579	47.64187	
588	2.935	917.02240	1916.81421	47.54880	901.34058	2236.80640	59.40680	1101.04358	2247.54810	58.52810	1500.44775	2267.73389	59.11494	1515.93872	1946.81384	47.55141	
589	2.940	917.02203	1916.81299	47.56044	901.28339	2236.77856	59.49846	1100.99402	2247.53052	58.56803	1500.43921	2267.73877	59.08051	1515.91187	1946.81970	47.61446	
590	2.945	916.95282	1916.80920	47.62331	901.27435	2236.75342	59.50926	1101.02368	2247.52148	58.51313	1500.43286	2267.76294	59.09192	1515.87585	1946.81567	47.62569	
591	2.950	917.03241	1916.81238	47.53510	901.35120	2236.86865	59.40222	1101.01807	2247.52075	58.53682	1500.36926	2267.72485	59.15147	1515.94519	1946.81970	47.57864	
592	2.955	917.02197	1916.82544	47.55635	901.35413	2236.76807	59.43791	1100.97803	2247.49414	58.59488	1500.50293	2267.79565	58.99650	1515.93469	1946.80640	47.58570	
593	2.960	917.01239	1916.81555	47.57997	901.33569	2236.79883	59.45730	1101.06970	2247.57568	58.47749	1500.50793	2267.76929	59.02276	1515.95227	1946.82544	47.56375	
594	2.965	917.13013	1916.83435	47.43173	901.34003	2236.78345	59.39314	1101.08228	2247.55347	58.42734	1500.43274	2267.77246	59.06384	1515.99524	1946.81189	47.52037	
595	2.970	917.09424	1916.83813	47.48173	901.39227	2236.76807	59.32985	1101.13623	2247.61011	58.41090	1500.61194	2267.82886	58.87654	1516.05713	1946.85645	47.48265	
596	2.975	917.17230	1916.85437	47.40737	901.36926	2236.81616	59.33190	1101.16504	2247.59692	58.30980	1500.60144	2267.85864	58.87576	1516.04285	1946.84570	47.47616	
597	2.980	917.15704	1916.84436	47.37750	901.34546	2236.85107	59.40459	1101.18933	2247.63623	58.30886	1500.62891	2267.90552	58.79839	1516.02148	1946.84021	47.49630	
598	2.985	917.21014	1916.86670	47.33932	901.43988	2236.83228	59.20763	1101.19397	2247.64478	58.30904	1500.62708	2267.87329	58.81670	1516.12964	1946.87097	47.38340	
599	2.990	917.22870	1916.86499	47.32171	901.41058	2236.78711	59.24421	1101.21252	2247.66333	58.30105	1500.68835	2267.92651	58.68341	1516.12000	1946.87805	47.41623	
600	2.995	917.18433	1916.87256	47.34418	901.47882	2236.90283	59.16742	1101.23645	2247.64355	58.18066	1500.74060	2267.94287	58.68880	1516.13171	1946.87292	47.37840	
601	3.000	917.26709	1916.87927	47.25816	901.44250	2236.86230	59.17313	1101.22778	2247.66235	58.18548	1500.61572	2267.91406	58.79999	1516.16052	1946.86389	47.31900	
602	3.005	917.21844	1916.88135	47.30297	901.15240	2237.22095	58.70107	1101.16382	2247.63477	58.25945	1500.74536	2267.93555	58.64775	1516.13989	1946.88318	47.31025	
603	3.010	917.22809	1916.87451	47.28563	901.07581	2237.57495	58.58712	1101.23499	2247.66895	58.17623	1500.72485	2267.95483	58.66064	1516.15405	1946.88782	47.31871	
604	3.015	917.25580	1916.88696	47.24257	900.95007	2237.82446	58.61395	1101.17603	2247.64429	58.24905	1500.59314	2267.93384	58.80179	1516.14270	1946.88147	47.34097	
605	3.020	917.21838	1916.87817	47.27580	900.99561	2238.21924	58.31940	1101.20605	2247.68140	58.19863	1500.61987	2267.89551	58.78363	1516.14307	1946.88330	47.33099	
606	3.025	917.16510	1916.88208	47.31591	900.83453	2238.64136	58.20060	1101.20825	2247.63770	58.19437	1500.62402	2267.91455	58.73435	1516.08618	1946.86731	47.36583	
607	3.030	917.16058	1916.88123	47.31820	901.32642	2236.82690	59.38257	1101.14368	2247.63745	58.29682	1500.61816	2267.87671	58.77057	1515.99573	1946.84912	47.43215	
608	3.035	917.15826	1916.87817	47.33879	901.39966	2236.81665	59.21585	1101.10938	2247.58325	58.34325	1500.50745	2267.85254	58.89825	1516.05005	1946.85229	47.38664	
609	3.040	917.09344	1916.87000	47.38563	901.38007	2236.80420	59.29949	1101.02441	2247.55444	58.45377	1500.56250	2267.87207	58.80223	1515.98376	1946.85107	47.44818	
610	3.045	917.03638	1916.84644	47.44970	901.36426	2236.81348	59.32643	1101.12268	2247.61426	58.34237	1500.49744	2267.84326	58.89965	1515.97131	1946.84583	47.46560	
611	3.050	917.07819	1916.84558	47.45308	901.28583	2236.81152	59.48336	1101.07837	2247.57080	58.42249	1500.48865	2267.83984	58.99777	1515.96399	1946.82605	47.51149	
612	3.055	917.02759	1916.84656	47.48824	901.36023	2236.80103	59.35432	1101.01965	2247.54736	58.54618	1500.47107	2267.81055	58.98245	1515.94446	1946.83264	47.49898	
613	3.060	916.98499	1916.82605	47.55672	901.32837	2236.76660	59.41663	1100.97571	2247.52563	58.57829	1500.49304	2267.80396	58.99721	1515.90576	1946.80542	47.54472	
614	3.065	916.98370	1916.82593	47.56505	901.34229	2236.81226	59.40485	1101.05444	2247.56030	58.46444	1500.37122	2267.76318	59.09220	1515.90161	1946.82349	47.56551	
615	3.070	917.02661	1916.80908	47.54462	901.44843	2236.62402	59.41828	1101.02612	2247.53589	58.50274	1500.36304	2267.73169	59.14167	1515.93811	1946.80945	47.55132	
616	3.075	916.98859	1916.82043	47.58241	901.31763	2236.75513	59.44054	1101.04919	2247.53149	58.47801	1500.43579	2267.75854	59.06715	1515.94617	1946.80554	47.58128	
617	3.080	917.05048	1916.79626	47.53737	901.32739	2236.81689	59.44192	1101.02856	2247.52686	58.54147	1500.40601	2267.76636	59.13609	1515.96118	1946.79480	47.54565	
618	3.085	917.01202	1916.79895	47.58022	901.33435	2236.79956	59.45839	1100.98535	2247.46436	58.61010	1500.50085	2267.77710	58.97941	1515.94470	1946.78699	47.59404	
619	3.090	917.06879	1916.81067	47.50100	901.26190	2236.78247	59.57592	1101.05664	2247.55103	58.52356	1500.49792	2267.77930	59.06783	1515.93677	1946.79553	47.61509	
